# xmcd CD database file
#
# Track frame offsets:
#	150
#	10174
#	29662
#	40338
#	55107
#	65259
#	78856
#	97559
#	113474
#	121303
#	140409
#	152810
#	165921
#	181253
#
# Disc length: 2544 seconds
#
# Revision: 1
# Processed by: cddbd v1.4PL0 Copyright (c) Steve Scherf et al.
# Submitted via: CDex 1.50
#
DISCID=9d09ee0e
DTITLE=Roland Malines - Blues Standards Finger Picking Style
DYEAR=1900
DGENRE=Blues
TTITLE0=One Bourbon, One Scotch, One Beer
TTITLE1=Nobody Knows When You're Down And Out
TTITLE2=Going Down The Road Feeling Bad
TTITLE3=Crossroads
TTITLE4=Baby Please Don't Go
TTITLE5=Ramblin' On My Mind
TTITLE6=Cocaine Blues
TTITLE7=I'm A King Bee
TTITLE8=Piccolo Ragtime Blues
TTITLE9=Stop Breaking Down
TTITLE10=Mojo Boogie
TTITLE11=Hesitation Blues
TTITLE12=Travailler C'Est Trop Dur
TTITLE13=BonusTrack 
EXTD=
EXTT0=
EXTT1=
EXTT2=
EXTT3=
EXTT4=
EXTT5=
EXTT6=
EXTT7=
EXTT8=
EXTT9=
EXTT10=
EXTT11=
EXTT12=
EXTT13=
PLAYORDER=
